<svg width="46" height="46" viewBox="0 0 46 46" fill="none" xmlns="http://www.w3.org/2000/svg">
<path d="M22.9167 8.94996C14.8542 8.94996 8.33333 15.5074 8.33333 23.6152H12.5C12.5 17.8329 17.1667 13.14 22.9167 13.14C28.6667 13.14 33.3333 17.8329 33.3333 23.6152H37.5C37.5 15.5074 30.9792 8.94996 22.9167 8.94996ZM25 28.4128C26.8333 27.5958 28.125 25.7731 28.125 23.6152C28.125 20.7241 25.7917 18.3776 22.9167 18.3776C20.0417 18.3776 17.7083 20.7241 17.7083 23.6152C17.7083 25.7521 19 27.5958 20.8333 28.4128V35.3264L13.7292 42.4705L16.6667 45.4245L22.9167 39.1394L29.1667 45.4245L32.1042 42.4705L25 35.3264V28.4128ZM22.9167 0.569824C10.2708 0.569824 0 10.8983 0 23.6152H4.16667C4.16667 13.2029 12.5625 4.75989 22.9167 4.75989C33.2708 4.75989 41.6667 13.2029 41.6667 23.6152H45.8333C45.8333 10.8983 35.5625 0.569824 22.9167 0.569824Z" fill="#9E2A2B"/>
</svg>
