<svg width="42" height="42" viewBox="0 0 42 42" fill="none" xmlns="http://www.w3.org/2000/svg">
<path d="M4.16667 8.33333H0V37.5C0 39.7917 1.875 41.6667 4.16667 41.6667H33.3333V37.5H4.16667V8.33333ZM37.5 0H12.5C10.2083 0 8.33333 1.875 8.33333 4.16667V29.1667C8.33333 31.4583 10.2083 33.3333 12.5 33.3333H37.5C39.7917 33.3333 41.6667 31.4583 41.6667 29.1667V4.16667C41.6667 1.875 39.7917 0 37.5 0ZM35.4167 18.75H14.5833V14.5833H35.4167V18.75ZM27.0833 27.0833H14.5833V22.9167H27.0833V27.0833ZM35.4167 10.4167H14.5833V6.25H35.4167V10.4167Z" fill="#9E2A2B"/>
</svg>
